<?xml version="1.0" encoding="UTF-8"?><svg id="Layer_2" xmlns="http://www.w3.org/2000/svg" viewBox="0 0 37 30"><defs><style>.cls-1{fill:#fff;}.cls-2{fill:#ff6b6b;}</style></defs><g id="Layer_1-2"><g id="tail"><path class="cls-2" d="m18.5,29.5c-8,0-14.5-6.5-14.5-14.5V.5h29v14.5c0,8-6.5,14.5-14.5,14.5Z"/><path d="m32.5,1v14c0,7.72-6.28,14-14,14s-14-6.28-14-14V1h28m1-1H3.5v15c0,8.29,6.72,15,15,15s15-6.71,15-15V0h0Z"/></g><circle class="cls-1" cx="30.5" cy="10" r="6"/><path d="m30.5,4.5c3.03,0,5.5,2.47,5.5,5.5s-2.47,5.5-5.5,5.5-5.5-2.47-5.5-5.5,2.47-5.5,5.5-5.5m0-1c-3.59,0-6.5,2.91-6.5,6.5s2.91,6.5,6.5,6.5,6.5-2.91,6.5-6.5-2.91-6.5-6.5-6.5h0Z"/><circle cx="30.5" cy="11" r="1.5"/><circle class="cls-1" cx="6.5" cy="10" r="6"/><path d="m6.5,4.5c3.03,0,5.5,2.47,5.5,5.5s-2.47,5.5-5.5,5.5S1,13.03,1,10s2.47-5.5,5.5-5.5m0-1C2.91,3.5,0,6.41,0,10s2.91,6.5,6.5,6.5,6.5-2.91,6.5-6.5-2.91-6.5-6.5-6.5h0Z"/><circle cx="6.5" cy="11" r="1.5"/><circle cx="13.5" cy="22" r="1.5"/><circle cx="23.5" cy="22" r="1.5"/></g></svg>