<?xml version="1.0" encoding="UTF-8"?><svg id="Layer_2" xmlns="http://www.w3.org/2000/svg" viewBox="0 0 64.5 92"><defs><style>.cls-1{fill:#fff;}.cls-2{fill:#7ba37d;}</style></defs><g id="Layer_1-2"><g id="square"><rect class="cls-2" x="31.5" y="31.5" width="29" height="29"/><path d="m60,32v28h-28v-28h28m1-1h-30v30h30v-30h0Z"/></g><g id="corner"><path class="cls-2" d="m31.5,29.5V.5h14.5c8,0,14.5,6.5,14.5,14.5v14.5h-29Z"/><path d="m46,1c7.72,0,14,6.28,14,14v14h-28V1h14m0-1h-15v30h30v-15c0-8.29-6.71-15-15-15h0Z"/></g><g id="tail"><path class="cls-2" d="m15,29.5C7.01,29.5.5,22.99.5,15S7.01.5,15,.5h14.5v29h-14.5Z"/><path d="m29,1v28h-14c-7.72,0-14-6.28-14-14S7.28,1,15,1h14m1-1h-15C6.71,0,0,6.72,0,15s6.71,15,15,15h15V0h0Z"/></g><g id="head"><g id="tail-2"><path class="cls-2" d="m46,91.5c-8,0-14.5-6.5-14.5-14.5v-14.5h29v14.5c0,8-6.5,14.5-14.5,14.5Z"/><path d="m60,63v14c0,7.72-6.28,14-14,14s-14-6.28-14-14v-14h28m1-1h-30v15c0,8.29,6.72,15,15,15s15-6.71,15-15v-15h0Z"/></g><circle class="cls-1" cx="58" cy="72" r="6"/><path d="m58,66.5c3.03,0,5.5,2.47,5.5,5.5s-2.47,5.5-5.5,5.5-5.5-2.47-5.5-5.5,2.47-5.5,5.5-5.5m0-1c-3.59,0-6.5,2.91-6.5,6.5s2.91,6.5,6.5,6.5,6.5-2.91,6.5-6.5-2.91-6.5-6.5-6.5h0Z"/><circle cx="58" cy="73" r="1.5"/><circle class="cls-1" cx="34" cy="72" r="6"/><path d="m34,66.5c3.03,0,5.5,2.47,5.5,5.5s-2.47,5.5-5.5,5.5-5.5-2.47-5.5-5.5,2.47-5.5,5.5-5.5m0-1c-3.59,0-6.5,2.91-6.5,6.5s2.91,6.5,6.5,6.5,6.5-2.91,6.5-6.5-2.91-6.5-6.5-6.5h0Z"/><circle cx="34" cy="73" r="1.5"/><circle cx="41" cy="84" r="1.5"/><circle cx="51" cy="84" r="1.5"/></g></g></svg>