<?xml version="1.0" encoding="UTF-8"?><svg id="Layer_2" xmlns="http://www.w3.org/2000/svg" viewBox="0 0 30 36.52"><defs><style>.cls-1{fill:lime;}.cls-2{fill:red;}.cls-3{fill:#8c6239;}</style></defs><g id="Layer_1-2"><g id="apple"><path class="cls-1" d="m15.4,8.46c0-1.43.94-3.27,2.49-4.85,1.56-1.59,3.52-2.65,5.1-2.78,0,1.43-.94,3.27-2.49,4.85-1.56,1.59-3.52,2.65-5.1,2.78Z"/><path d="m22.42,1.43c-.2,1.08-.91,2.51-2.28,3.9-1.28,1.31-2.84,2.24-4.18,2.54.2-1.08.91-2.51,2.28-3.9,1.28-1.31,2.84-2.24,4.18-2.54m.89-1.11c-1.71,0-3.94,1.07-5.78,2.94-1.89,1.92-2.83,4.14-2.59,5.71.04,0,.09,0,.13,0,1.71,0,3.94-1.07,5.78-2.94,1.89-1.92,2.83-4.14,2.59-5.71-.04,0-.09,0-.13,0h0Z"/><rect class="cls-3" x="12.67" y=".5" width="1.56" height="7.83"/><path d="m13.73,1v6.83h-.56V1h.56m1-1h-2.56v8.83h2.56V0h0Z"/><path class="cls-2" d="m15.7,36.02C7.32,36.02.5,29.63.5,21.79S7.32,7.57,15.7,7.57c5.79,0,11.08,3.1,13.63,7.94-2.15,1.15-3.56,3.61-3.56,6.29s1.41,5.14,3.56,6.29c-2.55,4.84-7.84,7.94-13.63,7.94Z"/><path d="m15.7,8.07c5.43,0,10.41,2.82,12.96,7.25-2.06,1.32-3.39,3.79-3.39,6.47s1.33,5.15,3.39,6.47c-2.54,4.44-7.52,7.25-12.96,7.25-8.1,0-14.7-6.16-14.7-13.72s6.59-13.72,14.7-13.72m0-1C7.03,7.07,0,13.66,0,21.79s7.03,14.72,15.7,14.72c6.37,0,11.84-3.56,14.3-8.67-2.18-.92-3.73-3.28-3.73-6.06s1.55-5.13,3.73-6.06c-2.46-5.11-7.94-8.67-14.3-8.67h0Z"/></g></g></svg>