<?xml version="1.0" encoding="UTF-8"?><svg id="Layer_2" xmlns="http://www.w3.org/2000/svg" viewBox="0 0 464 464"><defs><style>.cls-1{fill:#8cc63f;}.cls-2{fill:#39b54a;}</style></defs><g id="Layer_1-2"><g id="grass"><rect class="cls-2" x=".5" y=".5" width="29" height="29"/><path d="m29,1v28H1V1h28m1-1H0v30h30V0h0Z"/><rect class="cls-1" x="31.5" y=".5" width="29" height="29"/><path d="m60,1v28h-28V1h28m1-1h-30v30h30V0h0Z"/><rect class="cls-2" x="62.5" y=".5" width="29" height="29"/><path d="m91,1v28h-28V1h28m1-1h-30v30h30V0h0Z"/><rect class="cls-1" x="93.5" y=".5" width="29" height="29"/><path d="m122,1v28h-28V1h28m1-1h-30v30h30V0h0Z"/><rect class="cls-2" x="124.5" y=".5" width="29" height="29"/><path d="m153,1v28h-28V1h28m1-1h-30v30h30V0h0Z"/><rect class="cls-1" x="155.5" y=".5" width="29" height="29"/><path d="m184,1v28h-28V1h28m1-1h-30v30h30V0h0Z"/><rect class="cls-2" x="186.5" y=".5" width="29" height="29"/><path d="m215,1v28h-28V1h28m1-1h-30v30h30V0h0Z"/><rect class="cls-1" x="217.5" y=".5" width="29" height="29"/><path d="m246,1v28h-28V1h28m1-1h-30v30h30V0h0Z"/><rect class="cls-2" x="248.5" y=".5" width="29" height="29"/><path d="m277,1v28h-28V1h28m1-1h-30v30h30V0h0Z"/><rect class="cls-1" x="279.5" y=".5" width="29" height="29"/><path d="m308,1v28h-28V1h28m1-1h-30v30h30V0h0Z"/><rect class="cls-2" x="310.5" y=".5" width="29" height="29"/><path d="m339,1v28h-28V1h28m1-1h-30v30h30V0h0Z"/><rect class="cls-1" x="341.5" y=".5" width="29" height="29"/><path d="m370,1v28h-28V1h28m1-1h-30v30h30V0h0Z"/><rect class="cls-2" x="372.5" y=".5" width="29" height="29"/><path d="m401,1v28h-28V1h28m1-1h-30v30h30V0h0Z"/><rect class="cls-1" x="403.5" y=".5" width="29" height="29"/><path d="m432,1v28h-28V1h28m1-1h-30v30h30V0h0Z"/><rect class="cls-2" x="434.5" y=".5" width="29" height="29"/><path d="m463,1v28h-28V1h28m1-1h-30v30h30V0h0Z"/><rect class="cls-1" x=".5" y="31.5" width="29" height="29"/><path d="m29,32v28H1v-28h28m1-1H0v30h30v-30h0Z"/><rect class="cls-2" x="31.5" y="31.5" width="29" height="29"/><path d="m60,32v28h-28v-28h28m1-1h-30v30h30v-30h0Z"/><rect class="cls-1" x="62.5" y="31.5" width="29" height="29"/><path d="m91,32v28h-28v-28h28m1-1h-30v30h30v-30h0Z"/><rect class="cls-2" x="93.5" y="31.5" width="29" height="29"/><path d="m122,32v28h-28v-28h28m1-1h-30v30h30v-30h0Z"/><rect class="cls-1" x="124.5" y="31.5" width="29" height="29"/><path d="m153,32v28h-28v-28h28m1-1h-30v30h30v-30h0Z"/><rect class="cls-2" x="155.5" y="31.5" width="29" height="29"/><path d="m184,32v28h-28v-28h28m1-1h-30v30h30v-30h0Z"/><rect class="cls-1" x="186.5" y="31.5" width="29" height="29"/><path d="m215,32v28h-28v-28h28m1-1h-30v30h30v-30h0Z"/><rect class="cls-2" x="217.5" y="31.5" width="29" height="29"/><path d="m246,32v28h-28v-28h28m1-1h-30v30h30v-30h0Z"/><rect class="cls-1" x="248.5" y="31.5" width="29" height="29"/><path d="m277,32v28h-28v-28h28m1-1h-30v30h30v-30h0Z"/><rect class="cls-2" x="279.5" y="31.5" width="29" height="29"/><path d="m308,32v28h-28v-28h28m1-1h-30v30h30v-30h0Z"/><rect class="cls-1" x="310.5" y="31.5" width="29" height="29"/><path d="m339,32v28h-28v-28h28m1-1h-30v30h30v-30h0Z"/><rect class="cls-2" x="341.5" y="31.5" width="29" height="29"/><path d="m370,32v28h-28v-28h28m1-1h-30v30h30v-30h0Z"/><rect class="cls-1" x="372.5" y="31.5" width="29" height="29"/><path d="m401,32v28h-28v-28h28m1-1h-30v30h30v-30h0Z"/><rect class="cls-2" x="403.5" y="31.5" width="29" height="29"/><path d="m432,32v28h-28v-28h28m1-1h-30v30h30v-30h0Z"/><rect class="cls-1" x="434.5" y="31.5" width="29" height="29"/><path d="m463,32v28h-28v-28h28m1-1h-30v30h30v-30h0Z"/><rect class="cls-2" x=".5" y="62.5" width="29" height="29"/><path d="m29,63v28H1v-28h28m1-1H0v30h30v-30h0Z"/><rect class="cls-1" x="31.5" y="62.5" width="29" height="29"/><path d="m60,63v28h-28v-28h28m1-1h-30v30h30v-30h0Z"/><rect class="cls-2" x="62.5" y="62.5" width="29" height="29"/><path d="m91,63v28h-28v-28h28m1-1h-30v30h30v-30h0Z"/><rect class="cls-1" x="93.5" y="62.5" width="29" height="29"/><path d="m122,63v28h-28v-28h28m1-1h-30v30h30v-30h0Z"/><rect class="cls-2" x="124.5" y="62.5" width="29" height="29"/><path d="m153,63v28h-28v-28h28m1-1h-30v30h30v-30h0Z"/><rect class="cls-1" x="155.5" y="62.5" width="29" height="29"/><path d="m184,63v28h-28v-28h28m1-1h-30v30h30v-30h0Z"/><rect class="cls-2" x="186.5" y="62.5" width="29" height="29"/><path d="m215,63v28h-28v-28h28m1-1h-30v30h30v-30h0Z"/><rect class="cls-1" x="217.5" y="62.5" width="29" height="29"/><path d="m246,63v28h-28v-28h28m1-1h-30v30h30v-30h0Z"/><rect class="cls-2" x="248.5" y="62.5" width="29" height="29"/><path d="m277,63v28h-28v-28h28m1-1h-30v30h30v-30h0Z"/><rect class="cls-1" x="279.5" y="62.5" width="29" height="29"/><path d="m308,63v28h-28v-28h28m1-1h-30v30h30v-30h0Z"/><rect class="cls-2" x="310.5" y="62.5" width="29" height="29"/><path d="m339,63v28h-28v-28h28m1-1h-30v30h30v-30h0Z"/><rect class="cls-1" x="341.5" y="62.5" width="29" height="29"/><path d="m370,63v28h-28v-28h28m1-1h-30v30h30v-30h0Z"/><rect class="cls-2" x="372.5" y="62.5" width="29" height="29"/><path d="m401,63v28h-28v-28h28m1-1h-30v30h30v-30h0Z"/><rect class="cls-1" x="403.5" y="62.5" width="29" height="29"/><path d="m432,63v28h-28v-28h28m1-1h-30v30h30v-30h0Z"/><rect class="cls-2" x="434.5" y="62.5" width="29" height="29"/><path d="m463,63v28h-28v-28h28m1-1h-30v30h30v-30h0Z"/><rect class="cls-1" x=".5" y="93.5" width="29" height="29"/><path d="m29,94v28H1v-28h28m1-1H0v30h30v-30h0Z"/><rect class="cls-2" x="31.5" y="93.5" width="29" height="29"/><path d="m60,94v28h-28v-28h28m1-1h-30v30h30v-30h0Z"/><rect class="cls-1" x="62.5" y="93.5" width="29" height="29"/><path d="m91,94v28h-28v-28h28m1-1h-30v30h30v-30h0Z"/><rect class="cls-2" x="93.5" y="93.5" width="29" height="29"/><path d="m122,94v28h-28v-28h28m1-1h-30v30h30v-30h0Z"/><rect class="cls-1" x="124.5" y="93.5" width="29" height="29"/><path d="m153,94v28h-28v-28h28m1-1h-30v30h30v-30h0Z"/><rect class="cls-2" x="155.5" y="93.5" width="29" height="29"/><path d="m184,94v28h-28v-28h28m1-1h-30v30h30v-30h0Z"/><rect class="cls-1" x="186.5" y="93.5" width="29" height="29"/><path d="m215,94v28h-28v-28h28m1-1h-30v30h30v-30h0Z"/><rect class="cls-2" x="217.5" y="93.5" width="29" height="29"/><path d="m246,94v28h-28v-28h28m1-1h-30v30h30v-30h0Z"/><rect class="cls-1" x="248.5" y="93.5" width="29" height="29"/><path d="m277,94v28h-28v-28h28m1-1h-30v30h30v-30h0Z"/><rect class="cls-2" x="279.5" y="93.5" width="29" height="29"/><path d="m308,94v28h-28v-28h28m1-1h-30v30h30v-30h0Z"/><rect class="cls-1" x="310.5" y="93.5" width="29" height="29"/><path d="m339,94v28h-28v-28h28m1-1h-30v30h30v-30h0Z"/><rect class="cls-2" x="341.5" y="93.5" width="29" height="29"/><path d="m370,94v28h-28v-28h28m1-1h-30v30h30v-30h0Z"/><rect class="cls-1" x="372.5" y="93.5" width="29" height="29"/><path d="m401,94v28h-28v-28h28m1-1h-30v30h30v-30h0Z"/><rect class="cls-2" x="403.5" y="93.5" width="29" height="29"/><path d="m432,94v28h-28v-28h28m1-1h-30v30h30v-30h0Z"/><rect class="cls-1" x="434.5" y="93.5" width="29" height="29"/><path d="m463,94v28h-28v-28h28m1-1h-30v30h30v-30h0Z"/><rect class="cls-2" x=".5" y="124.5" width="29" height="29"/><path d="m29,125v28H1v-28h28m1-1H0v30h30v-30h0Z"/><rect class="cls-1" x="31.5" y="124.5" width="29" height="29"/><path d="m60,125v28h-28v-28h28m1-1h-30v30h30v-30h0Z"/><rect class="cls-2" x="62.5" y="124.5" width="29" height="29"/><path d="m91,125v28h-28v-28h28m1-1h-30v30h30v-30h0Z"/><rect class="cls-1" x="93.5" y="124.5" width="29" height="29"/><path d="m122,125v28h-28v-28h28m1-1h-30v30h30v-30h0Z"/><rect class="cls-2" x="124.5" y="124.5" width="29" height="29"/><path d="m153,125v28h-28v-28h28m1-1h-30v30h30v-30h0Z"/><rect class="cls-1" x="155.5" y="124.5" width="29" height="29"/><path d="m184,125v28h-28v-28h28m1-1h-30v30h30v-30h0Z"/><rect class="cls-2" x="186.5" y="124.5" width="29" height="29"/><path d="m215,125v28h-28v-28h28m1-1h-30v30h30v-30h0Z"/><rect class="cls-1" x="217.5" y="124.5" width="29" height="29"/><path d="m246,125v28h-28v-28h28m1-1h-30v30h30v-30h0Z"/><rect class="cls-2" x="248.5" y="124.5" width="29" height="29"/><path d="m277,125v28h-28v-28h28m1-1h-30v30h30v-30h0Z"/><rect class="cls-1" x="279.5" y="124.5" width="29" height="29"/><path d="m308,125v28h-28v-28h28m1-1h-30v30h30v-30h0Z"/><rect class="cls-2" x="310.5" y="124.5" width="29" height="29"/><path d="m339,125v28h-28v-28h28m1-1h-30v30h30v-30h0Z"/><rect class="cls-1" x="341.5" y="124.5" width="29" height="29"/><path d="m370,125v28h-28v-28h28m1-1h-30v30h30v-30h0Z"/><rect class="cls-2" x="372.5" y="124.5" width="29" height="29"/><path d="m401,125v28h-28v-28h28m1-1h-30v30h30v-30h0Z"/><rect class="cls-1" x="403.5" y="124.5" width="29" height="29"/><path d="m432,125v28h-28v-28h28m1-1h-30v30h30v-30h0Z"/><rect class="cls-2" x="434.5" y="124.5" width="29" height="29"/><path d="m463,125v28h-28v-28h28m1-1h-30v30h30v-30h0Z"/><rect class="cls-1" x=".5" y="155.5" width="29" height="29"/><path d="m29,156v28H1v-28h28m1-1H0v30h30v-30h0Z"/><rect class="cls-2" x="31.5" y="155.5" width="29" height="29"/><path d="m60,156v28h-28v-28h28m1-1h-30v30h30v-30h0Z"/><rect class="cls-1" x="62.5" y="155.5" width="29" height="29"/><path d="m91,156v28h-28v-28h28m1-1h-30v30h30v-30h0Z"/><rect class="cls-2" x="93.5" y="155.5" width="29" height="29"/><path d="m122,156v28h-28v-28h28m1-1h-30v30h30v-30h0Z"/><rect class="cls-1" x="124.5" y="155.5" width="29" height="29"/><path d="m153,156v28h-28v-28h28m1-1h-30v30h30v-30h0Z"/><rect class="cls-2" x="155.5" y="155.5" width="29" height="29"/><path d="m184,156v28h-28v-28h28m1-1h-30v30h30v-30h0Z"/><rect class="cls-1" x="186.5" y="155.5" width="29" height="29"/><path d="m215,156v28h-28v-28h28m1-1h-30v30h30v-30h0Z"/><rect class="cls-2" x="217.5" y="155.5" width="29" height="29"/><path d="m246,156v28h-28v-28h28m1-1h-30v30h30v-30h0Z"/><rect class="cls-1" x="248.5" y="155.5" width="29" height="29"/><path d="m277,156v28h-28v-28h28m1-1h-30v30h30v-30h0Z"/><rect class="cls-2" x="279.5" y="155.5" width="29" height="29"/><path d="m308,156v28h-28v-28h28m1-1h-30v30h30v-30h0Z"/><rect class="cls-1" x="310.5" y="155.5" width="29" height="29"/><path d="m339,156v28h-28v-28h28m1-1h-30v30h30v-30h0Z"/><rect class="cls-2" x="341.5" y="155.5" width="29" height="29"/><path d="m370,156v28h-28v-28h28m1-1h-30v30h30v-30h0Z"/><rect class="cls-1" x="372.5" y="155.5" width="29" height="29"/><path d="m401,156v28h-28v-28h28m1-1h-30v30h30v-30h0Z"/><rect class="cls-2" x="403.5" y="155.5" width="29" height="29"/><path d="m432,156v28h-28v-28h28m1-1h-30v30h30v-30h0Z"/><rect class="cls-1" x="434.5" y="155.5" width="29" height="29"/><path d="m463,156v28h-28v-28h28m1-1h-30v30h30v-30h0Z"/><rect class="cls-2" x=".5" y="186.5" width="29" height="29"/><path d="m29,187v28H1v-28h28m1-1H0v30h30v-30h0Z"/><rect class="cls-1" x="31.5" y="186.5" width="29" height="29"/><path d="m60,187v28h-28v-28h28m1-1h-30v30h30v-30h0Z"/><rect class="cls-2" x="62.5" y="186.5" width="29" height="29"/><path d="m91,187v28h-28v-28h28m1-1h-30v30h30v-30h0Z"/><rect class="cls-1" x="93.5" y="186.5" width="29" height="29"/><path d="m122,187v28h-28v-28h28m1-1h-30v30h30v-30h0Z"/><rect class="cls-2" x="124.5" y="186.5" width="29" height="29"/><path d="m153,187v28h-28v-28h28m1-1h-30v30h30v-30h0Z"/><rect class="cls-1" x="155.5" y="186.5" width="29" height="29"/><path d="m184,187v28h-28v-28h28m1-1h-30v30h30v-30h0Z"/><rect class="cls-2" x="186.5" y="186.5" width="29" height="29"/><path d="m215,187v28h-28v-28h28m1-1h-30v30h30v-30h0Z"/><rect class="cls-1" x="217.5" y="186.5" width="29" height="29"/><path d="m246,187v28h-28v-28h28m1-1h-30v30h30v-30h0Z"/><rect class="cls-2" x="248.5" y="186.5" width="29" height="29"/><path d="m277,187v28h-28v-28h28m1-1h-30v30h30v-30h0Z"/><rect class="cls-1" x="279.5" y="186.5" width="29" height="29"/><path d="m308,187v28h-28v-28h28m1-1h-30v30h30v-30h0Z"/><rect class="cls-2" x="310.5" y="186.5" width="29" height="29"/><path d="m339,187v28h-28v-28h28m1-1h-30v30h30v-30h0Z"/><rect class="cls-1" x="341.5" y="186.5" width="29" height="29"/><path d="m370,187v28h-28v-28h28m1-1h-30v30h30v-30h0Z"/><rect class="cls-2" x="372.5" y="186.5" width="29" height="29"/><path d="m401,187v28h-28v-28h28m1-1h-30v30h30v-30h0Z"/><rect class="cls-1" x="403.5" y="186.5" width="29" height="29"/><path d="m432,187v28h-28v-28h28m1-1h-30v30h30v-30h0Z"/><rect class="cls-2" x="434.5" y="186.5" width="29" height="29"/><path d="m463,187v28h-28v-28h28m1-1h-30v30h30v-30h0Z"/><rect class="cls-1" x=".5" y="217.5" width="29" height="29"/><path d="m29,218v28H1v-28h28m1-1H0v30h30v-30h0Z"/><rect class="cls-2" x="31.5" y="217.5" width="29" height="29"/><path d="m60,218v28h-28v-28h28m1-1h-30v30h30v-30h0Z"/><rect class="cls-1" x="62.5" y="217.5" width="29" height="29"/><path d="m91,218v28h-28v-28h28m1-1h-30v30h30v-30h0Z"/><rect class="cls-2" x="93.5" y="217.5" width="29" height="29"/><path d="m122,218v28h-28v-28h28m1-1h-30v30h30v-30h0Z"/><rect class="cls-1" x="124.5" y="217.5" width="29" height="29"/><path d="m153,218v28h-28v-28h28m1-1h-30v30h30v-30h0Z"/><rect class="cls-2" x="155.5" y="217.5" width="29" height="29"/><path d="m184,218v28h-28v-28h28m1-1h-30v30h30v-30h0Z"/><rect class="cls-1" x="186.5" y="217.5" width="29" height="29"/><path d="m215,218v28h-28v-28h28m1-1h-30v30h30v-30h0Z"/><rect class="cls-2" x="217.5" y="217.5" width="29" height="29"/><path d="m246,218v28h-28v-28h28m1-1h-30v30h30v-30h0Z"/><rect class="cls-1" x="248.5" y="217.5" width="29" height="29"/><path d="m277,218v28h-28v-28h28m1-1h-30v30h30v-30h0Z"/><rect class="cls-2" x="279.5" y="217.5" width="29" height="29"/><path d="m308,218v28h-28v-28h28m1-1h-30v30h30v-30h0Z"/><rect class="cls-1" x="310.5" y="217.5" width="29" height="29"/><path d="m339,218v28h-28v-28h28m1-1h-30v30h30v-30h0Z"/><rect class="cls-2" x="341.5" y="217.5" width="29" height="29"/><path d="m370,218v28h-28v-28h28m1-1h-30v30h30v-30h0Z"/><rect class="cls-1" x="372.5" y="217.5" width="29" height="29"/><path d="m401,218v28h-28v-28h28m1-1h-30v30h30v-30h0Z"/><rect class="cls-2" x="403.5" y="217.5" width="29" height="29"/><path d="m432,218v28h-28v-28h28m1-1h-30v30h30v-30h0Z"/><rect class="cls-1" x="434.5" y="217.5" width="29" height="29"/><path d="m463,218v28h-28v-28h28m1-1h-30v30h30v-30h0Z"/><rect class="cls-2" x=".5" y="248.5" width="29" height="29"/><path d="m29,249v28H1v-28h28m1-1H0v30h30v-30h0Z"/><rect class="cls-1" x="31.5" y="248.5" width="29" height="29"/><path d="m60,249v28h-28v-28h28m1-1h-30v30h30v-30h0Z"/><rect class="cls-2" x="62.5" y="248.5" width="29" height="29"/><path d="m91,249v28h-28v-28h28m1-1h-30v30h30v-30h0Z"/><rect class="cls-1" x="93.5" y="248.5" width="29" height="29"/><path d="m122,249v28h-28v-28h28m1-1h-30v30h30v-30h0Z"/><rect class="cls-2" x="124.5" y="248.5" width="29" height="29"/><path d="m153,249v28h-28v-28h28m1-1h-30v30h30v-30h0Z"/><rect class="cls-1" x="155.5" y="248.5" width="29" height="29"/><path d="m184,249v28h-28v-28h28m1-1h-30v30h30v-30h0Z"/><rect class="cls-2" x="186.5" y="248.5" width="29" height="29"/><path d="m215,249v28h-28v-28h28m1-1h-30v30h30v-30h0Z"/><rect class="cls-1" x="217.5" y="248.5" width="29" height="29"/><path d="m246,249v28h-28v-28h28m1-1h-30v30h30v-30h0Z"/><rect class="cls-2" x="248.5" y="248.5" width="29" height="29"/><path d="m277,249v28h-28v-28h28m1-1h-30v30h30v-30h0Z"/><rect class="cls-1" x="279.5" y="248.5" width="29" height="29"/><path d="m308,249v28h-28v-28h28m1-1h-30v30h30v-30h0Z"/><rect class="cls-2" x="310.5" y="248.5" width="29" height="29"/><path d="m339,249v28h-28v-28h28m1-1h-30v30h30v-30h0Z"/><rect class="cls-1" x="341.5" y="248.5" width="29" height="29"/><path d="m370,249v28h-28v-28h28m1-1h-30v30h30v-30h0Z"/><rect class="cls-2" x="372.5" y="248.5" width="29" height="29"/><path d="m401,249v28h-28v-28h28m1-1h-30v30h30v-30h0Z"/><rect class="cls-1" x="403.5" y="248.5" width="29" height="29"/><path d="m432,249v28h-28v-28h28m1-1h-30v30h30v-30h0Z"/><rect class="cls-2" x="434.5" y="248.5" width="29" height="29"/><path d="m463,249v28h-28v-28h28m1-1h-30v30h30v-30h0Z"/><rect class="cls-1" x=".5" y="279.5" width="29" height="29"/><path d="m29,280v28H1v-28h28m1-1H0v30h30v-30h0Z"/><rect class="cls-2" x="31.5" y="279.5" width="29" height="29"/><path d="m60,280v28h-28v-28h28m1-1h-30v30h30v-30h0Z"/><rect class="cls-1" x="62.5" y="279.5" width="29" height="29"/><path d="m91,280v28h-28v-28h28m1-1h-30v30h30v-30h0Z"/><rect class="cls-2" x="93.5" y="279.5" width="29" height="29"/><path d="m122,280v28h-28v-28h28m1-1h-30v30h30v-30h0Z"/><rect class="cls-1" x="124.5" y="279.5" width="29" height="29"/><path d="m153,280v28h-28v-28h28m1-1h-30v30h30v-30h0Z"/><rect class="cls-2" x="155.5" y="279.5" width="29" height="29"/><path d="m184,280v28h-28v-28h28m1-1h-30v30h30v-30h0Z"/><rect class="cls-1" x="186.5" y="279.5" width="29" height="29"/><path d="m215,280v28h-28v-28h28m1-1h-30v30h30v-30h0Z"/><rect class="cls-2" x="217.5" y="279.5" width="29" height="29"/><path d="m246,280v28h-28v-28h28m1-1h-30v30h30v-30h0Z"/><rect class="cls-1" x="248.5" y="279.5" width="29" height="29"/><path d="m277,280v28h-28v-28h28m1-1h-30v30h30v-30h0Z"/><rect class="cls-2" x="279.5" y="279.5" width="29" height="29"/><path d="m308,280v28h-28v-28h28m1-1h-30v30h30v-30h0Z"/><rect class="cls-1" x="310.5" y="279.5" width="29" height="29"/><path d="m339,280v28h-28v-28h28m1-1h-30v30h30v-30h0Z"/><rect class="cls-2" x="341.5" y="279.5" width="29" height="29"/><path d="m370,280v28h-28v-28h28m1-1h-30v30h30v-30h0Z"/><rect class="cls-1" x="372.5" y="279.5" width="29" height="29"/><path d="m401,280v28h-28v-28h28m1-1h-30v30h30v-30h0Z"/><rect class="cls-2" x="403.5" y="279.5" width="29" height="29"/><path d="m432,280v28h-28v-28h28m1-1h-30v30h30v-30h0Z"/><rect class="cls-1" x="434.5" y="279.5" width="29" height="29"/><path d="m463,280v28h-28v-28h28m1-1h-30v30h30v-30h0Z"/><rect class="cls-2" x=".5" y="310.5" width="29" height="29"/><path d="m29,311v28H1v-28h28m1-1H0v30h30v-30h0Z"/><rect class="cls-1" x="31.5" y="310.5" width="29" height="29"/><path d="m60,311v28h-28v-28h28m1-1h-30v30h30v-30h0Z"/><rect class="cls-2" x="62.5" y="310.5" width="29" height="29"/><path d="m91,311v28h-28v-28h28m1-1h-30v30h30v-30h0Z"/><rect class="cls-1" x="93.5" y="310.5" width="29" height="29"/><path d="m122,311v28h-28v-28h28m1-1h-30v30h30v-30h0Z"/><rect class="cls-2" x="124.5" y="310.5" width="29" height="29"/><path d="m153,311v28h-28v-28h28m1-1h-30v30h30v-30h0Z"/><rect class="cls-1" x="155.5" y="310.5" width="29" height="29"/><path d="m184,311v28h-28v-28h28m1-1h-30v30h30v-30h0Z"/><rect class="cls-2" x="186.5" y="310.5" width="29" height="29"/><path d="m215,311v28h-28v-28h28m1-1h-30v30h30v-30h0Z"/><rect class="cls-1" x="217.5" y="310.5" width="29" height="29"/><path d="m246,311v28h-28v-28h28m1-1h-30v30h30v-30h0Z"/><rect class="cls-2" x="248.5" y="310.5" width="29" height="29"/><path d="m277,311v28h-28v-28h28m1-1h-30v30h30v-30h0Z"/><rect class="cls-1" x="279.5" y="310.5" width="29" height="29"/><path d="m308,311v28h-28v-28h28m1-1h-30v30h30v-30h0Z"/><rect class="cls-2" x="310.5" y="310.5" width="29" height="29"/><path d="m339,311v28h-28v-28h28m1-1h-30v30h30v-30h0Z"/><rect class="cls-1" x="341.5" y="310.5" width="29" height="29"/><path d="m370,311v28h-28v-28h28m1-1h-30v30h30v-30h0Z"/><rect class="cls-2" x="372.5" y="310.5" width="29" height="29"/><path d="m401,311v28h-28v-28h28m1-1h-30v30h30v-30h0Z"/><rect class="cls-1" x="403.5" y="310.5" width="29" height="29"/><path d="m432,311v28h-28v-28h28m1-1h-30v30h30v-30h0Z"/><rect class="cls-2" x="434.5" y="310.5" width="29" height="29"/><path d="m463,311v28h-28v-28h28m1-1h-30v30h30v-30h0Z"/><rect class="cls-1" x=".5" y="341.5" width="29" height="29"/><path d="m29,342v28H1v-28h28m1-1H0v30h30v-30h0Z"/><rect class="cls-2" x="31.5" y="341.5" width="29" height="29"/><path d="m60,342v28h-28v-28h28m1-1h-30v30h30v-30h0Z"/><rect class="cls-1" x="62.5" y="341.5" width="29" height="29"/><path d="m91,342v28h-28v-28h28m1-1h-30v30h30v-30h0Z"/><rect class="cls-2" x="93.5" y="341.5" width="29" height="29"/><path d="m122,342v28h-28v-28h28m1-1h-30v30h30v-30h0Z"/><rect class="cls-1" x="124.5" y="341.5" width="29" height="29"/><path d="m153,342v28h-28v-28h28m1-1h-30v30h30v-30h0Z"/><rect class="cls-2" x="155.5" y="341.5" width="29" height="29"/><path d="m184,342v28h-28v-28h28m1-1h-30v30h30v-30h0Z"/><rect class="cls-1" x="186.5" y="341.5" width="29" height="29"/><path d="m215,342v28h-28v-28h28m1-1h-30v30h30v-30h0Z"/><rect class="cls-2" x="217.5" y="341.5" width="29" height="29"/><path d="m246,342v28h-28v-28h28m1-1h-30v30h30v-30h0Z"/><rect class="cls-1" x="248.5" y="341.5" width="29" height="29"/><path d="m277,342v28h-28v-28h28m1-1h-30v30h30v-30h0Z"/><rect class="cls-2" x="279.5" y="341.5" width="29" height="29"/><path d="m308,342v28h-28v-28h28m1-1h-30v30h30v-30h0Z"/><rect class="cls-1" x="310.5" y="341.5" width="29" height="29"/><path d="m339,342v28h-28v-28h28m1-1h-30v30h30v-30h0Z"/><rect class="cls-2" x="341.5" y="341.5" width="29" height="29"/><path d="m370,342v28h-28v-28h28m1-1h-30v30h30v-30h0Z"/><rect class="cls-1" x="372.5" y="341.5" width="29" height="29"/><path d="m401,342v28h-28v-28h28m1-1h-30v30h30v-30h0Z"/><rect class="cls-2" x="403.5" y="341.5" width="29" height="29"/><path d="m432,342v28h-28v-28h28m1-1h-30v30h30v-30h0Z"/><rect class="cls-1" x="434.5" y="341.5" width="29" height="29"/><path d="m463,342v28h-28v-28h28m1-1h-30v30h30v-30h0Z"/><rect class="cls-2" x=".5" y="372.5" width="29" height="29"/><path d="m29,373v28H1v-28h28m1-1H0v30h30v-30h0Z"/><rect class="cls-1" x="31.5" y="372.5" width="29" height="29"/><path d="m60,373v28h-28v-28h28m1-1h-30v30h30v-30h0Z"/><rect class="cls-2" x="62.5" y="372.5" width="29" height="29"/><path d="m91,373v28h-28v-28h28m1-1h-30v30h30v-30h0Z"/><rect class="cls-1" x="93.5" y="372.5" width="29" height="29"/><path d="m122,373v28h-28v-28h28m1-1h-30v30h30v-30h0Z"/><rect class="cls-2" x="124.5" y="372.5" width="29" height="29"/><path d="m153,373v28h-28v-28h28m1-1h-30v30h30v-30h0Z"/><rect class="cls-1" x="155.5" y="372.5" width="29" height="29"/><path d="m184,373v28h-28v-28h28m1-1h-30v30h30v-30h0Z"/><rect class="cls-2" x="186.5" y="372.5" width="29" height="29"/><path d="m215,373v28h-28v-28h28m1-1h-30v30h30v-30h0Z"/><rect class="cls-1" x="217.5" y="372.5" width="29" height="29"/><path d="m246,373v28h-28v-28h28m1-1h-30v30h30v-30h0Z"/><rect class="cls-2" x="248.5" y="372.5" width="29" height="29"/><path d="m277,373v28h-28v-28h28m1-1h-30v30h30v-30h0Z"/><rect class="cls-1" x="279.5" y="372.5" width="29" height="29"/><path d="m308,373v28h-28v-28h28m1-1h-30v30h30v-30h0Z"/><rect class="cls-2" x="310.5" y="372.5" width="29" height="29"/><path d="m339,373v28h-28v-28h28m1-1h-30v30h30v-30h0Z"/><rect class="cls-1" x="341.5" y="372.5" width="29" height="29"/><path d="m370,373v28h-28v-28h28m1-1h-30v30h30v-30h0Z"/><rect class="cls-2" x="372.5" y="372.5" width="29" height="29"/><path d="m401,373v28h-28v-28h28m1-1h-30v30h30v-30h0Z"/><rect class="cls-1" x="403.5" y="372.5" width="29" height="29"/><path d="m432,373v28h-28v-28h28m1-1h-30v30h30v-30h0Z"/><rect class="cls-2" x="434.5" y="372.5" width="29" height="29"/><path d="m463,373v28h-28v-28h28m1-1h-30v30h30v-30h0Z"/><rect class="cls-1" x=".5" y="403.5" width="29" height="29"/><path d="m29,404v28H1v-28h28m1-1H0v30h30v-30h0Z"/><rect class="cls-2" x="31.5" y="403.5" width="29" height="29"/><path d="m60,404v28h-28v-28h28m1-1h-30v30h30v-30h0Z"/><rect class="cls-1" x="62.5" y="403.5" width="29" height="29"/><path d="m91,404v28h-28v-28h28m1-1h-30v30h30v-30h0Z"/><rect class="cls-2" x="93.5" y="403.5" width="29" height="29"/><path d="m122,404v28h-28v-28h28m1-1h-30v30h30v-30h0Z"/><rect class="cls-1" x="124.5" y="403.5" width="29" height="29"/><path d="m153,404v28h-28v-28h28m1-1h-30v30h30v-30h0Z"/><rect class="cls-2" x="155.5" y="403.5" width="29" height="29"/><path d="m184,404v28h-28v-28h28m1-1h-30v30h30v-30h0Z"/><rect class="cls-1" x="186.5" y="403.5" width="29" height="29"/><path d="m215,404v28h-28v-28h28m1-1h-30v30h30v-30h0Z"/><rect class="cls-2" x="217.5" y="403.5" width="29" height="29"/><path d="m246,404v28h-28v-28h28m1-1h-30v30h30v-30h0Z"/><rect class="cls-1" x="248.5" y="403.5" width="29" height="29"/><path d="m277,404v28h-28v-28h28m1-1h-30v30h30v-30h0Z"/><rect class="cls-2" x="279.5" y="403.5" width="29" height="29"/><path d="m308,404v28h-28v-28h28m1-1h-30v30h30v-30h0Z"/><rect class="cls-1" x="310.5" y="403.5" width="29" height="29"/><path d="m339,404v28h-28v-28h28m1-1h-30v30h30v-30h0Z"/><rect class="cls-2" x="341.5" y="403.5" width="29" height="29"/><path d="m370,404v28h-28v-28h28m1-1h-30v30h30v-30h0Z"/><rect class="cls-1" x="372.5" y="403.5" width="29" height="29"/><path d="m401,404v28h-28v-28h28m1-1h-30v30h30v-30h0Z"/><rect class="cls-2" x="403.5" y="403.5" width="29" height="29"/><path d="m432,404v28h-28v-28h28m1-1h-30v30h30v-30h0Z"/><rect class="cls-1" x="434.5" y="403.5" width="29" height="29"/><path d="m463,404v28h-28v-28h28m1-1h-30v30h30v-30h0Z"/><rect class="cls-2" x=".5" y="434.5" width="29" height="29"/><path d="m29,435v28H1v-28h28m1-1H0v30h30v-30h0Z"/><rect class="cls-1" x="31.5" y="434.5" width="29" height="29"/><path d="m60,435v28h-28v-28h28m1-1h-30v30h30v-30h0Z"/><rect class="cls-2" x="62.5" y="434.5" width="29" height="29"/><path d="m91,435v28h-28v-28h28m1-1h-30v30h30v-30h0Z"/><rect class="cls-1" x="93.5" y="434.5" width="29" height="29"/><path d="m122,435v28h-28v-28h28m1-1h-30v30h30v-30h0Z"/><rect class="cls-2" x="124.5" y="434.5" width="29" height="29"/><path d="m153,435v28h-28v-28h28m1-1h-30v30h30v-30h0Z"/><rect class="cls-1" x="155.5" y="434.5" width="29" height="29"/><path d="m184,435v28h-28v-28h28m1-1h-30v30h30v-30h0Z"/><rect class="cls-2" x="186.5" y="434.5" width="29" height="29"/><path d="m215,435v28h-28v-28h28m1-1h-30v30h30v-30h0Z"/><rect class="cls-1" x="217.5" y="434.5" width="29" height="29"/><path d="m246,435v28h-28v-28h28m1-1h-30v30h30v-30h0Z"/><rect class="cls-2" x="248.5" y="434.5" width="29" height="29"/><path d="m277,435v28h-28v-28h28m1-1h-30v30h30v-30h0Z"/><rect class="cls-1" x="279.5" y="434.5" width="29" height="29"/><path d="m308,435v28h-28v-28h28m1-1h-30v30h30v-30h0Z"/><rect class="cls-2" x="310.5" y="434.5" width="29" height="29"/><path d="m339,435v28h-28v-28h28m1-1h-30v30h30v-30h0Z"/><rect class="cls-1" x="341.5" y="434.5" width="29" height="29"/><path d="m370,435v28h-28v-28h28m1-1h-30v30h30v-30h0Z"/><rect class="cls-2" x="372.5" y="434.5" width="29" height="29"/><path d="m401,435v28h-28v-28h28m1-1h-30v30h30v-30h0Z"/><rect class="cls-1" x="403.5" y="434.5" width="29" height="29"/><path d="m432,435v28h-28v-28h28m1-1h-30v30h30v-30h0Z"/><rect class="cls-2" x="434.5" y="434.5" width="29" height="29"/><path d="m463,435v28h-28v-28h28m1-1h-30v30h30v-30h0Z"/></g></g></svg>