<?xml version="1.0" encoding="UTF-8"?><svg id="Layer_2" xmlns="http://www.w3.org/2000/svg" viewBox="0 0 161 161"><defs><style>.cls-1{fill:lime;}.cls-2{fill:#fff;}.cls-3{fill:#ffe66d;}.cls-4{fill:red;}.cls-5{fill:#ff6b6b;}.cls-6{fill:#8c6239;}.cls-7{fill:#8cc63f;}.cls-8{fill:#39b54a;}.cls-9{fill:#4ecdc4;}.cls-10{fill:#7ba37d;}</style></defs><g id="Layer_1-2"><g id="grass"><rect class="cls-8" x="66" y="4" width="29" height="29"/><path d="m94.5,4.5v28h-28V4.5h28m1-1h-30v30h30V3.5h0Z"/><rect class="cls-7" x="97" y="4" width="29" height="29"/><path d="m125.5,4.5v28h-28V4.5h28m1-1h-30v30h30V3.5h0Z"/><rect class="cls-7" x="4" y="35" width="29" height="29"/><path d="m32.5,35.5v28H4.5v-28h28m1-1H3.5v30h30v-30h0Z"/><rect class="cls-8" x="35" y="35" width="29" height="29"/><path d="m63.5,35.5v28h-28v-28h28m1-1h-30v30h30v-30h0Z"/><rect class="cls-7" x="66" y="35" width="29" height="29"/><path d="m94.5,35.5v28h-28v-28h28m1-1h-30v30h30v-30h0Z"/><rect class="cls-8" x="97" y="35" width="29" height="29"/><path d="m125.5,35.5v28h-28v-28h28m1-1h-30v30h30v-30h0Z"/><rect class="cls-8" x="4" y="66" width="29" height="29"/><path d="m32.5,66.5v28H4.5v-28h28m1-1H3.5v30h30v-30h0Z"/><rect class="cls-7" x="35" y="66" width="29" height="29"/><path d="m63.5,66.5v28h-28v-28h28m1-1h-30v30h30v-30h0Z"/><rect class="cls-8" x="66" y="66" width="29" height="29"/><path d="m94.5,66.5v28h-28v-28h28m1-1h-30v30h30v-30h0Z"/><rect class="cls-7" x="97" y="66" width="29" height="29"/><path d="m125.5,66.5v28h-28v-28h28m1-1h-30v30h30v-30h0Z"/><rect class="cls-8" x="128" y="66" width="29" height="29"/><path d="m156.5,66.5v28h-28v-28h28m1-1h-30v30h30v-30h0Z"/><rect class="cls-8" x="35" y="97" width="29" height="29"/><path d="m63.5,97.5v28h-28v-28h28m1-1h-30v30h30v-30h0Z"/><rect class="cls-7" x="66" y="97" width="29" height="29"/><path d="m94.5,97.5v28h-28v-28h28m1-1h-30v30h30v-30h0Z"/><rect class="cls-8" x="97" y="97" width="29" height="29"/><path d="m125.5,97.5v28h-28v-28h28m1-1h-30v30h30v-30h0Z"/><rect class="cls-7" x="128" y="97" width="29" height="29"/><path d="m156.5,97.5v28h-28v-28h28m1-1h-30v30h30v-30h0Z"/><rect class="cls-7" x="35" y="128" width="29" height="29"/><path d="m63.5,128.5v28h-28v-28h28m1-1h-30v30h30v-30h0Z"/><rect class="cls-8" x="66" y="128" width="29" height="29"/><path d="m94.5,128.5v28h-28v-28h28m1-1h-30v30h30v-30h0Z"/><g id="square"><rect class="cls-5" x="35" y="4" width="29" height="29"/><path d="m63.5,4.5v28h-28V4.5h28m1-1h-30v30h30V3.5h0Z"/></g></g><g id="corner"><path class="cls-5" d="m4,33v-14.5c0-8,6.5-14.5,14.5-14.5h14.5v29H4Z"/><path d="m32.5,4.5v28H4.5v-14c0-7.72,6.28-14,14-14h14m1-1h-15c-8.29,0-15,6.71-15,15v15h30V3.5h0Z"/></g><g id="tail"><path class="cls-5" d="m18.5,64c-8,0-14.5-6.5-14.5-14.5v-14.5h29v14.5c0,8-6.5,14.5-14.5,14.5Z"/><path d="m32.5,35.5v14c0,7.72-6.28,14-14,14s-14-6.28-14-14v-14h28m1-1H3.5v15c0,8.29,6.72,15,15,15s15-6.71,15-15v-15h0Z"/></g><g id="head"><g id="tail-2"><path class="cls-5" d="m66,33V4h14.5c8,0,14.5,6.5,14.5,14.5s-6.5,14.5-14.5,14.5h-14.5Z"/><path d="m80.5,4.5c7.72,0,14,6.28,14,14s-6.28,14-14,14h-14V4.5h14m0-1h-15v30h15c8.29,0,15-6.72,15-15s-6.71-15-15-15h0Z"/></g><circle class="cls-2" cx="75.5" cy="6.5" r="6"/><path d="m75.5,1c3.03,0,5.5,2.47,5.5,5.5s-2.47,5.5-5.5,5.5-5.5-2.47-5.5-5.5,2.47-5.5,5.5-5.5m0-1c-3.59,0-6.5,2.91-6.5,6.5s2.91,6.5,6.5,6.5,6.5-2.91,6.5-6.5-2.91-6.5-6.5-6.5h0Z"/><circle cx="76.5" cy="6.5" r="1.5"/><circle class="cls-2" cx="75.5" cy="30.5" r="6"/><path d="m75.5,25c3.03,0,5.5,2.47,5.5,5.5s-2.47,5.5-5.5,5.5-5.5-2.47-5.5-5.5,2.47-5.5,5.5-5.5m0-1c-3.59,0-6.5,2.91-6.5,6.5s2.91,6.5,6.5,6.5,6.5-2.91,6.5-6.5-2.91-6.5-6.5-6.5h0Z"/><circle cx="76.5" cy="30.5" r="1.5"/><circle cx="87.5" cy="23.5" r="1.5"/><circle cx="87.5" cy="13.5" r="1.5"/></g><g id="square-2"><rect class="cls-3" x="128" y="35" width="29" height="29"/><path d="m156.5,35.5v28h-28v-28h28m1-1h-30v30h30v-30h0Z"/></g><g id="corner-2"><path class="cls-3" d="m128,33V4h14.5c8,0,14.5,6.5,14.5,14.5v14.5h-29Z"/><path d="m142.5,4.5c7.72,0,14,6.28,14,14v14h-28V4.5h14m0-1h-15v30h30v-15c0-8.29-6.71-15-15-15h0Z"/></g><g id="tail-3"><path class="cls-3" d="m111.5,33c-8,0-14.5-6.5-14.5-14.5s6.5-14.5,14.5-14.5h14.5v29h-14.5Z"/><path d="m125.5,4.5v28h-14c-7.72,0-14-6.28-14-14s6.28-14,14-14h14m1-1h-15c-8.29,0-15,6.72-15,15s6.71,15,15,15h15V3.5h0Z"/></g><g id="head-2"><g id="tail-4"><path class="cls-3" d="m142.5,95c-8,0-14.5-6.5-14.5-14.5v-14.5h29v14.5c0,8-6.5,14.5-14.5,14.5Z"/><path d="m156.5,66.5v14c0,7.72-6.28,14-14,14s-14-6.28-14-14v-14h28m1-1h-30v15c0,8.29,6.72,15,15,15s15-6.71,15-15v-15h0Z"/></g><circle class="cls-2" cx="154.5" cy="75.5" r="6"/><path d="m154.5,70c3.03,0,5.5,2.47,5.5,5.5s-2.47,5.5-5.5,5.5-5.5-2.47-5.5-5.5,2.47-5.5,5.5-5.5m0-1c-3.59,0-6.5,2.91-6.5,6.5s2.91,6.5,6.5,6.5,6.5-2.91,6.5-6.5-2.91-6.5-6.5-6.5h0Z"/><circle cx="154.5" cy="76.5" r="1.5"/><circle class="cls-2" cx="130.5" cy="75.5" r="6"/><path d="m130.5,70c3.03,0,5.5,2.47,5.5,5.5s-2.47,5.5-5.5,5.5-5.5-2.47-5.5-5.5,2.47-5.5,5.5-5.5m0-1c-3.59,0-6.5,2.91-6.5,6.5s2.91,6.5,6.5,6.5,6.5-2.91,6.5-6.5-2.91-6.5-6.5-6.5h0Z"/><circle cx="130.5" cy="76.5" r="1.5"/><circle cx="137.5" cy="87.5" r="1.5"/><circle cx="147.5" cy="87.5" r="1.5"/></g><g id="square-3"><rect class="cls-9" x="97" y="128" width="29" height="29"/><path d="m125.5,128.5v28h-28v-28h28m1-1h-30v30h30v-30h0Z"/></g><g id="corner-3"><path class="cls-9" d="m128,157v-29h29v14.5c0,8-6.5,14.5-14.5,14.5h-14.5Z"/><path d="m156.5,128.5v14c0,7.72-6.28,14-14,14h-14v-28h28m1-1h-30v30h15c8.29,0,15-6.71,15-15v-15h0Z"/></g><g id="tail-5"><path class="cls-9" d="m128,126v-14.5c0-8,6.5-14.5,14.5-14.5s14.5,6.5,14.5,14.5v14.5h-29Z"/><path d="m142.5,97.5c7.72,0,14,6.28,14,14v14h-28v-14c0-7.72,6.28-14,14-14m0-1c-8.29,0-15,6.71-15,15v15h30v-15c0-8.29-6.72-15-15-15h0Z"/></g><g id="head-3"><g id="tail-6"><path class="cls-9" d="m80.5,157c-8,0-14.5-6.5-14.5-14.5s6.5-14.5,14.5-14.5h14.5v29h-14.5Z"/><path d="m94.5,128.5v28h-14c-7.72,0-14-6.28-14-14s6.28-14,14-14h14m1-1h-15c-8.29,0-15,6.72-15,15s6.71,15,15,15h15v-30h0Z"/></g><circle class="cls-2" cx="85.5" cy="154.5" r="6"/><path d="m85.5,149c3.03,0,5.5,2.47,5.5,5.5s-2.47,5.5-5.5,5.5-5.5-2.47-5.5-5.5,2.47-5.5,5.5-5.5m0-1c-3.59,0-6.5,2.91-6.5,6.5s2.91,6.5,6.5,6.5,6.5-2.91,6.5-6.5-2.91-6.5-6.5-6.5h0Z"/><circle cx="84.5" cy="154.5" r="1.5"/><circle class="cls-2" cx="85.5" cy="130.5" r="6"/><path d="m85.5,125c3.03,0,5.5,2.47,5.5,5.5s-2.47,5.5-5.5,5.5-5.5-2.47-5.5-5.5,2.47-5.5,5.5-5.5m0-1c-3.59,0-6.5,2.91-6.5,6.5s2.91,6.5,6.5,6.5,6.5-2.91,6.5-6.5-2.91-6.5-6.5-6.5h0Z"/><circle cx="84.5" cy="130.5" r="1.5"/><circle cx="73.5" cy="137.5" r="1.5"/><circle cx="73.5" cy="147.5" r="1.5"/></g><g id="square-4"><rect class="cls-10" x="4" y="97" width="29" height="29"/><path d="m32.5,97.5v28H4.5v-28h28m1-1H3.5v30h30v-30h0Z"/></g><g id="corner-4"><path class="cls-10" d="m18.5,157c-8,0-14.5-6.5-14.5-14.5v-14.5h29v29h-14.5Z"/><path d="m32.5,128.5v28h-14c-7.72,0-14-6.28-14-14v-14h28m1-1H3.5v15c0,8.29,6.71,15,15,15h15v-30h0Z"/></g><g id="tail-7"><path class="cls-10" d="m35,157v-29h14.5c8,0,14.5,6.5,14.5,14.5s-6.5,14.5-14.5,14.5h-14.5Z"/><path d="m49.5,128.5c7.72,0,14,6.28,14,14s-6.28,14-14,14h-14v-28h14m0-1h-15v30h15c8.29,0,15-6.72,15-15s-6.71-15-15-15h0Z"/></g><g id="head-4"><g id="tail-8"><path class="cls-10" d="m4,95v-14.5c0-8,6.5-14.5,14.5-14.5s14.5,6.5,14.5,14.5v14.5H4Z"/><path d="m18.5,66.5c7.72,0,14,6.28,14,14v14H4.5v-14c0-7.72,6.28-14,14-14m0-1c-8.29,0-15,6.71-15,15v15h30v-15c0-8.29-6.72-15-15-15h0Z"/></g><circle class="cls-2" cx="6.5" cy="85.5" r="6"/><path d="m6.5,80c3.03,0,5.5,2.47,5.5,5.5s-2.47,5.5-5.5,5.5-5.5-2.47-5.5-5.5,2.47-5.5,5.5-5.5m0-1c-3.59,0-6.5,2.91-6.5,6.5s2.91,6.5,6.5,6.5,6.5-2.91,6.5-6.5-2.91-6.5-6.5-6.5h0Z"/><circle cx="6.5" cy="84.5" r="1.5"/><circle class="cls-2" cx="30.5" cy="85.5" r="6"/><path d="m30.5,80c3.03,0,5.5,2.47,5.5,5.5s-2.47,5.5-5.5,5.5-5.5-2.47-5.5-5.5,2.47-5.5,5.5-5.5m0-1c-3.59,0-6.5,2.91-6.5,6.5s2.91,6.5,6.5,6.5,6.5-2.91,6.5-6.5-2.91-6.5-6.5-6.5h0Z"/><circle cx="30.5" cy="84.5" r="1.5"/><circle cx="23.5" cy="73.5" r="1.5"/><circle cx="13.5" cy="73.5" r="1.5"/></g><g id="apple"><path class="cls-1" d="m80.9,67.45c0-1.43.94-3.27,2.49-4.85,1.56-1.59,3.52-2.65,5.1-2.78,0,1.43-.94,3.27-2.49,4.85-1.56,1.59-3.52,2.65-5.1,2.78Z"/><path d="m87.92,60.42c-.2,1.08-.91,2.51-2.28,3.9-1.28,1.31-2.84,2.24-4.18,2.54.2-1.08.91-2.51,2.28-3.9,1.28-1.31,2.84-2.24,4.18-2.54m.89-1.11c-1.71,0-3.94,1.07-5.78,2.94-1.89,1.92-2.83,4.14-2.59,5.71.04,0,.09,0,.13,0,1.71,0,3.94-1.07,5.78-2.94,1.89-1.92,2.83-4.14,2.59-5.71-.04,0-.09,0-.13,0h0Z"/><rect class="cls-6" x="78.17" y="59.49" width="1.56" height="7.83"/><path d="m79.23,59.99v6.83h-.56v-6.83h.56m1-1h-2.56v8.83h2.56v-8.83h0Z"/><path class="cls-4" d="m81.2,95.01c-8.38,0-15.2-6.38-15.2-14.22s6.82-14.22,15.2-14.22c5.79,0,11.08,3.1,13.63,7.94-2.15,1.15-3.56,3.61-3.56,6.29s1.41,5.14,3.56,6.29c-2.55,4.84-7.84,7.94-13.63,7.94Z"/><path d="m81.2,67.06c5.43,0,10.41,2.82,12.96,7.25-2.06,1.32-3.39,3.79-3.39,6.47s1.33,5.15,3.39,6.47c-2.54,4.44-7.52,7.25-12.96,7.25-8.1,0-14.7-6.16-14.7-13.72s6.59-13.72,14.7-13.72m0-1c-8.67,0-15.7,6.59-15.7,14.72s7.03,14.72,15.7,14.72c6.37,0,11.84-3.56,14.3-8.67-2.18-.92-3.73-3.28-3.73-6.06s1.55-5.13,3.73-6.06c-2.46-5.11-7.94-8.67-14.3-8.67h0Z"/></g></g></svg>